<svg width="788" height="233" viewBox="0 0 788 233" fill="none" xmlns="http://www.w3.org/2000/svg">
<path d="M156.34 44C149.029 31.1305 138.643 20.2736 126.11 12.4C113.452 4.58674 98.8702 0.44873 83.995 0.44873C69.1198 0.44873 54.5379 4.58674 41.88 12.4C29.3647 20.0952 18.9674 30.7916 11.63 43.52C4.16991 56.4671 0.319437 71.1783 0.479998 86.12V206.21H36.48V86.12C36.6235 77.4075 38.8596 68.8572 43 61.19C47.0179 53.5767 52.8583 47.0766 60 42.27C67.1016 37.5494 75.4742 35.1074 84 35.27C92.4137 35.1433 100.656 37.6541 107.57 42.45C114.737 47.3652 120.674 53.867 124.92 61.45C129.205 68.9518 131.437 77.4507 131.39 86.09V206.21H167.39V86.12C167.639 71.3323 163.816 56.761 156.34 44V44Z" fill="black"/>
<path d="M100.48 104.21H67.48V206.21H100.48V104.21Z" fill="black"/>
<path d="M207.61 39L208.18 46.69C213.053 40.69 219.633 37.69 227.92 37.69C236.76 37.69 242.833 41.18 246.14 48.16C250.96 41.18 257.837 37.69 266.77 37.69C274.223 37.69 279.767 39.8567 283.4 44.19C287.033 48.5233 288.853 55.05 288.86 63.77V107.64H270.45V63.84C270.45 59.94 269.69 57.1 268.16 55.3C266.63 53.5 263.95 52.6 260.1 52.6C254.6 52.6 250.793 55.2233 248.68 60.47L248.74 107.64H230.4V64C230.4 60 229.61 57.15 228.05 55.37C226.49 53.59 223.81 52.7 220.05 52.7C214.837 52.7 211.07 54.86 208.75 59.18V107.74H190.41V39H207.61Z" fill="black"/>
<path d="M289.23 108.06H270.07V63.89C270.07 60.1 269.34 57.31 267.88 55.59C266.42 53.87 263.82 53 260.1 53C254.74 53 251.1 55.47 249.05 60.57L249.12 108.03H230V64C230 60.14 229.24 57.32 227.75 55.62C226.26 53.92 223.66 53.08 220.03 53.08C215.03 53.08 211.35 55.16 209.11 59.27V108.11H190V38.63H208L208.52 45.74C213.39 40.18 219.92 37.36 227.96 37.36C236.68 37.36 242.82 40.76 246.24 47.48C251.1 40.76 258.01 37.36 266.81 37.36C274.34 37.36 280.03 39.59 283.73 44C287.43 48.41 289.27 55.06 289.27 63.82L289.23 108.06ZM270.82 107.31H288.48V63.82C288.48 55.24 286.68 48.73 283.11 44.48C279.54 40.23 274.06 38.11 266.77 38.11C258.01 38.11 251.17 41.58 246.45 48.42L246.08 48.96L245.8 48.37C242.58 41.56 236.57 38.11 227.92 38.11C219.78 38.11 213.24 41.11 208.47 46.92L207.88 47.65L207.26 39.38H190.78V107.31H208.38V59V58.92C210.77 54.49 214.68 52.25 220.01 52.25C223.87 52.25 226.65 53.19 228.29 55.04C229.93 56.89 230.73 59.87 230.73 63.92V107.28H248.32L248.26 60.42V60.35C250.43 54.97 254.39 52.25 260.03 52.25C263.98 52.25 266.79 53.25 268.38 55.08C269.97 56.91 270.75 59.89 270.75 63.86L270.82 107.31Z" fill="black"/>
<path d="M332.61 109C322.537 109 314.337 105.91 308.01 99.73C301.683 93.55 298.52 85.3067 298.52 75V73.22C298.412 66.8277 299.78 60.4966 302.52 54.72C304.984 49.5105 308.923 45.1395 313.85 42.15C318.913 39.164 324.703 37.6376 330.58 37.74C339.973 37.74 347.367 40.7 352.76 46.62C358.153 52.54 360.853 60.94 360.86 71.82V79.31H317.12C317.532 83.4418 319.442 87.2799 322.49 90.1C325.604 92.8608 329.661 94.3181 333.82 94.17C340.88 94.17 346.4 91.61 350.38 86.49L359.38 96.58C356.529 100.552 352.674 103.696 348.21 105.69C343.316 107.924 337.99 109.054 332.61 109V109ZM330.52 52.57C328.864 52.5093 327.215 52.8077 325.686 53.4447C324.156 54.0816 322.783 55.0421 321.66 56.26C319.4 58.7267 317.95 62.2567 317.31 66.85H342.83V65.38C342.75 61.3 341.64 58.14 339.53 55.91C337.42 53.68 334.41 52.53 330.52 52.53V52.57Z" fill="black"/>
<path d="M332.61 109.33C322.48 109.33 314.12 106.18 307.75 99.96C301.38 93.74 298.15 85.34 298.15 74.96V73.18C298.032 66.7321 299.401 60.3437 302.15 54.51C304.643 49.237 308.632 44.8135 313.62 41.79C318.74 38.769 324.596 37.222 330.54 37.32C340 37.32 347.54 40.32 353 46.32C358.46 52.32 361.19 60.85 361.19 71.77V79.64H317.55C318.035 83.5248 319.872 87.1148 322.74 89.78C325.786 92.481 329.751 93.9124 333.82 93.78C340.73 93.78 346.2 91.25 350.09 86.25L350.36 85.89L359.88 96.54L359.7 96.78C356.808 100.8 352.902 103.982 348.38 106C343.43 108.249 338.047 109.386 332.61 109.33ZM330.61 38.11C324.804 38.0149 319.084 39.5236 314.08 42.47C309.217 45.4237 305.327 49.7383 302.89 54.88C300.166 60.605 298.797 66.8806 298.89 73.22V75C298.89 85.13 302.04 93.34 308.27 99.42C314.5 105.5 322.68 108.58 332.6 108.58C337.927 108.642 343.203 107.54 348.06 105.35C352.37 103.417 356.108 100.403 358.91 96.6L350.39 87.07C346.39 92.07 340.8 94.54 333.81 94.54C329.557 94.6844 325.41 93.1959 322.22 90.38C319.124 87.4964 317.177 83.5886 316.74 79.38L316.68 78.96H360.47V71.84C360.47 61.11 357.78 52.72 352.47 46.89C347.16 41.06 339.82 38.11 330.58 38.11H330.61ZM343.24 67.18H316.88L316.94 66.76C317.58 62.11 319.08 58.48 321.38 55.97C322.54 54.7142 323.956 53.7229 325.534 53.0637C327.111 52.4045 328.812 52.0929 330.52 52.15C334.52 52.15 337.62 53.32 339.8 55.61C341.98 57.9 343.12 61.18 343.21 65.33L343.24 67.18ZM317.78 66.43H342.49V65.34C342.4 61.34 341.33 58.28 339.29 56.13C337.25 53.98 334.29 52.9 330.55 52.9C328.946 52.8423 327.349 53.1323 325.868 53.7503C324.387 54.3683 323.057 55.2995 321.97 56.48C319.81 58.8 318.4 62.15 317.75 66.43H317.78Z" fill="black"/>
<path d="M370.56 72.84C370.56 62.1266 372.963 53.6 377.77 47.26C382.577 40.92 389.147 37.7466 397.48 37.74C400.618 37.6744 403.731 38.3132 406.59 39.6094C409.449 40.9056 411.981 42.8262 414 45.23V10.23H432.41V107.73H415.88L415 100.43C412.942 103.149 410.271 105.343 407.203 106.832C404.136 108.322 400.759 109.065 397.35 109C393.575 109.101 389.832 108.283 386.442 106.618C383.052 104.953 380.118 102.49 377.89 99.44C373.003 93.0467 370.56 84.18 370.56 72.84ZM388.91 74.2C388.91 80.6466 390.03 85.5867 392.27 89.02C393.301 90.6651 394.748 92.008 396.466 92.9126C398.184 93.8171 400.11 94.2509 402.05 94.17C407.723 94.17 411.723 91.7733 414.05 86.98V59.84C411.77 55.0466 407.813 52.65 402.18 52.65C393.333 52.65 388.91 59.8333 388.91 74.2Z" fill="black"/>
<path d="M397.35 109.33C393.52 109.427 389.723 108.595 386.283 106.906C382.844 105.217 379.865 102.721 377.6 99.63C372.68 93.23 370.19 84.21 370.19 72.84C370.19 62.1 372.64 53.41 377.47 47.03C382.3 40.65 389.05 37.36 397.47 37.36C400.502 37.2986 403.513 37.8809 406.304 39.0686C409.095 40.2562 411.602 42.0222 413.66 44.25V9.81H432.82V108.06H415.55L414.73 101.3C412.628 103.865 409.972 105.92 406.962 107.311C403.952 108.702 400.665 109.392 397.35 109.33V109.33ZM397.48 38.11C389.3 38.11 382.77 41.26 378.07 47.48C373.37 53.7 370.94 62.26 370.94 72.84C370.94 84.04 373.38 92.9 378.19 99.17C380.385 102.17 383.275 104.594 386.612 106.232C389.949 107.871 393.634 108.677 397.35 108.58C400.701 108.637 404.018 107.904 407.033 106.439C410.047 104.975 412.674 102.82 414.7 100.15L415.26 99.46L416.26 107.31H432.12V10.56H414.42V46.22L413.76 45.47C411.765 43.1092 409.268 41.2233 406.452 39.95C403.635 38.6768 400.57 38.0481 397.48 38.11V38.11ZM402.05 94.54C400.055 94.6155 398.075 94.1634 396.311 93.2294C394.546 92.2953 393.059 90.9123 392 89.22C389.72 85.74 388.57 80.69 388.57 74.22C388.57 59.67 393.16 52.3 402.21 52.3C407.97 52.3 412.08 54.79 414.42 59.69V59.86V87.09V87.17C412 92.05 407.85 94.54 402.05 94.54V94.54ZM402.17 53.03C393.62 53.03 389.28 60.15 389.28 74.2C389.28 80.54 390.39 85.46 392.58 88.81C393.576 90.4055 394.977 91.7086 396.641 92.5869C398.304 93.4651 400.171 93.8871 402.05 93.81C407.58 93.81 411.38 91.56 413.67 86.92V59.92C411.43 55.28 407.66 53 402.17 53V53.03Z" fill="black"/>
<path d="M218 191.17C221.004 191.303 223.948 190.304 226.25 188.37C227.301 187.443 228.141 186.301 228.71 185.02C229.28 183.74 229.566 182.351 229.55 180.95H246.75C246.741 185.49 245.421 189.931 242.95 193.74C240.423 197.627 236.873 200.741 232.69 202.74C228.21 204.934 223.278 206.051 218.29 206C208.47 206 200.723 202.877 195.05 196.63C189.377 190.383 186.543 181.763 186.55 170.77V169.56C186.55 158.98 189.363 150.537 194.99 144.23C200.617 137.923 208.34 134.773 218.16 134.78C226.747 134.78 233.633 137.223 238.82 142.11C244.007 146.997 246.64 153.503 246.72 161.63H229.52C229.578 158.411 228.397 155.293 226.22 152.92C225.139 151.801 223.834 150.923 222.389 150.346C220.945 149.769 219.394 149.504 217.84 149.57C213.573 149.57 210.347 151.127 208.16 154.24C205.973 157.353 204.883 162.407 204.89 169.4V171.31C204.89 178.39 205.97 183.477 208.13 186.57C210.29 189.663 213.58 191.197 218 191.17Z" fill="black"/>
<path d="M218.29 206.33C208.4 206.33 200.49 203.14 194.78 196.84C189.07 190.54 186.17 181.78 186.17 170.73V169.52C186.17 158.9 189.05 150.29 194.71 143.94C200.37 137.59 208.28 134.36 218.16 134.36C226.81 134.36 233.85 136.86 239.08 141.79C244.31 146.72 247.01 153.39 247.08 161.58V162H229.16V161.63C229.207 158.506 228.062 155.481 225.96 153.17C224.911 152.092 223.646 151.248 222.249 150.691C220.852 150.135 219.353 149.879 217.85 149.94C213.73 149.94 210.58 151.46 208.48 154.45C206.38 157.44 205.28 162.52 205.28 169.45V171.36C205.28 178.36 206.35 183.36 208.45 186.36C210.55 189.36 213.73 190.84 217.98 190.84C220.89 190.967 223.742 190.004 225.98 188.14C226.99 187.245 227.797 186.143 228.346 184.91C228.894 183.677 229.172 182.34 229.16 180.99V180.62H247.1V181C247.09 185.616 245.746 190.13 243.23 194C240.669 197.947 237.071 201.112 232.83 203.15C228.293 205.316 223.317 206.404 218.29 206.33V206.33ZM218.16 135.11C208.5 135.11 200.8 138.25 195.27 144.44C189.74 150.63 186.92 159.09 186.92 169.52V170.73C186.92 181.58 189.75 190.2 195.33 196.34C200.91 202.48 208.62 205.58 218.33 205.58C223.248 205.638 228.113 204.552 232.54 202.41C236.659 200.435 240.154 197.362 242.64 193.53C245.006 189.891 246.302 185.66 246.38 181.32H229.88C229.848 182.711 229.528 184.08 228.941 185.341C228.354 186.603 227.513 187.729 226.47 188.65C224.095 190.638 221.064 191.668 217.97 191.54C213.46 191.54 210.05 189.93 207.82 186.74C205.59 183.55 204.52 178.39 204.52 171.27V169.36C204.52 162.36 205.64 157.15 207.85 153.98C210.06 150.81 213.46 149.15 217.85 149.15C219.455 149.088 221.055 149.364 222.545 149.962C224.036 150.56 225.383 151.466 226.5 152.62C228.654 154.966 229.865 158.025 229.9 161.21H246.35C246.19 153.4 243.58 147.05 238.58 142.34C233.58 137.63 226.61 135.11 218.16 135.11V135.11Z" fill="black"/>
<path d="M254.69 169.71C254.576 163.414 255.924 157.177 258.63 151.49C261.105 146.328 265.064 142.021 270 139.12C275.217 136.122 281.154 134.607 287.17 134.74C296.437 134.74 304 137.573 309.86 143.24C315.72 148.907 318.99 156.61 319.67 166.35L319.8 171.04C319.8 181.58 316.857 190.033 310.97 196.4C305.083 202.767 297.18 205.967 287.26 206C277.353 206 269.45 202.823 263.55 196.47C257.65 190.117 254.697 181.487 254.69 170.58V169.71ZM273 171C273 177.533 274.227 182.533 276.68 186C277.909 187.608 279.492 188.912 281.305 189.812C283.118 190.712 285.114 191.183 287.138 191.19C289.162 191.197 291.161 190.739 292.98 189.851C294.799 188.963 296.39 187.67 297.63 186.07C300.123 182.657 301.37 177.2 301.37 169.7C301.37 163.3 300.123 158.34 297.63 154.82C296.462 153.122 294.882 151.748 293.039 150.827C291.196 149.905 289.149 149.466 287.09 149.55C285.053 149.467 283.028 149.905 281.206 150.821C279.385 151.738 277.827 153.104 276.68 154.79C274.227 158.263 273 163.667 273 171Z" fill="black"/>
<path d="M287.26 206.33C277.26 206.33 269.26 203.09 263.26 196.69C257.26 190.29 254.31 181.5 254.31 170.54V169.71C254.209 163.357 255.578 157.067 258.31 151.33C260.814 146.108 264.808 141.744 269.79 138.79C275.068 135.767 281.069 134.236 287.15 134.36C296.47 134.36 304.2 137.26 310.1 142.97C316 148.68 319.34 156.54 320.02 166.32L320.15 171.03C320.15 181.63 317.15 190.25 311.23 196.66C305.31 203.07 297.22 206.33 287.26 206.33ZM287.13 135.11C281.176 134.986 275.3 136.483 270.13 139.44C265.299 142.33 261.427 146.581 259 151.66C256.335 157.298 255.003 163.474 255.11 169.71V170.54C255.11 181.3 258.05 189.93 263.86 196.18C269.67 202.43 277.55 205.58 287.3 205.58C297.05 205.58 304.92 202.41 310.7 196.15C316.48 189.89 319.42 181.43 319.42 171.04L319.29 166.36C318.63 156.78 315.36 149.09 309.6 143.51C303.84 137.93 296.25 135.11 287.13 135.11V135.11ZM287.26 191.54C285.148 191.634 283.047 191.194 281.151 190.261C279.254 189.327 277.624 187.931 276.41 186.2C273.92 182.7 272.66 177.59 272.66 171.01C272.66 163.64 273.92 158.1 276.41 154.55C277.594 152.816 279.198 151.411 281.073 150.466C282.948 149.522 285.032 149.069 287.13 149.15C289.253 149.064 291.363 149.517 293.263 150.467C295.164 151.416 296.793 152.831 298 154.58C300.53 158.15 301.82 163.23 301.82 169.68C301.82 177.22 300.53 182.81 298 186.27C296.788 187.971 295.172 189.343 293.297 190.263C291.422 191.183 289.347 191.622 287.26 191.54V191.54ZM287.13 149.9C285.147 149.819 283.176 150.244 281.404 151.137C279.631 152.029 278.116 153.359 277 155C274.61 158.41 273.39 163.8 273.39 171C273.39 177.42 274.61 182.39 277 185.76C278.197 187.316 279.735 188.578 281.495 189.448C283.256 190.318 285.192 190.773 287.155 190.779C289.119 190.785 291.058 190.341 292.823 189.481C294.588 188.622 296.134 187.369 297.34 185.82C299.78 182.48 301.02 177.05 301.02 169.67C301.02 163.38 299.78 158.45 297.34 155.01C296.206 153.368 294.675 152.039 292.89 151.146C291.106 150.252 289.124 149.824 287.13 149.9V149.9Z" fill="black"/>
<path d="M345.29 137L345.86 144.94C350.767 138.8 357.347 135.733 365.6 135.74C372.88 135.74 378.297 137.877 381.85 142.15C385.403 146.423 387.223 152.813 387.31 161.32V205.69H369V161.76C369 157.87 368.15 155.04 366.46 153.29C364.77 151.54 361.95 150.65 358.01 150.65C355.651 150.553 353.312 151.12 351.26 152.287C349.207 153.454 347.523 155.173 346.4 157.25V205.69H328V137H345.29Z" fill="black"/>
<path d="M387.69 206.06H368.59V161.76C368.59 157.99 367.77 155.22 366.16 153.55C364.55 151.88 361.79 151 358 151C355.724 150.912 353.469 151.457 351.484 152.575C349.5 153.692 347.865 155.338 346.76 157.33V206.03H327.65V136.63H345.65L346.18 143.98C351.08 138.26 357.61 135.36 365.61 135.36C372.97 135.36 378.54 137.56 382.15 141.91C385.76 146.26 387.61 152.76 387.7 161.31L387.69 206.06ZM369.34 205.31H386.94V161.31C386.85 152.93 385.04 146.56 381.56 142.38C378.08 138.2 372.73 136.1 365.56 136.1C357.47 136.1 350.92 139.1 346.11 145.16L345.51 145.91L344.9 137.37H328.4V205.3H346V157.15L346.06 157.06C347.219 154.928 348.952 153.163 351.062 151.965C353.172 150.767 355.575 150.183 358 150.28C362 150.28 365 151.2 366.72 153.03C368.44 154.86 369.36 157.79 369.36 161.76L369.34 205.31Z" fill="black"/>
<path d="M436.11 185.71C436.108 184.603 435.795 183.519 435.206 182.582C434.617 181.645 433.776 180.892 432.78 180.41C430.56 179.123 426.993 177.97 422.08 176.95C405.753 173.523 397.587 166.583 397.58 156.13C397.58 150.03 400.11 144.94 405.17 140.86C410.23 136.78 416.84 134.74 425 134.74C433.72 134.74 440.693 136.79 445.92 140.89C448.408 142.738 450.418 145.155 451.782 147.938C453.146 150.722 453.824 153.791 453.76 156.89H435.41C435.447 155.69 435.241 154.494 434.805 153.376C434.368 152.257 433.71 151.238 432.87 150.38C431.18 148.67 428.53 147.81 424.94 147.81C421.853 147.81 419.46 148.51 417.76 149.91C416.954 150.541 416.305 151.351 415.866 152.277C415.427 153.202 415.209 154.216 415.23 155.24C415.232 156.242 415.499 157.225 416.005 158.089C416.511 158.953 417.238 159.668 418.11 160.16C420.037 161.413 423.287 162.493 427.86 163.4C431.781 164.134 435.642 165.16 439.41 166.47C449.103 170.03 453.967 176.207 454 185C454 191.26 451.313 196.327 445.94 200.2C440.567 204.073 433.607 206.007 425.06 206C419.79 206.097 414.563 205.046 409.74 202.92C405.546 201.09 401.918 198.173 399.23 194.47C396.76 191.114 395.425 187.057 395.42 182.89H412.81C412.812 184.33 413.138 185.752 413.765 187.048C414.391 188.345 415.302 189.484 416.43 190.38C418.67 192.12 421.68 192.98 425.43 192.98C428.94 192.98 431.59 192.32 433.43 190.98C434.28 190.394 434.971 189.605 435.439 188.685C435.907 187.765 436.137 186.742 436.11 185.71V185.71Z" fill="black"/>
<path d="M425.06 206.33C419.736 206.422 414.455 205.361 409.58 203.22C405.33 201.359 401.65 198.401 398.92 194.65C396.414 191.225 395.059 187.094 395.05 182.85V182.48H413.17V182.83C413.171 184.215 413.483 185.582 414.084 186.83C414.685 188.078 415.558 189.175 416.64 190.04C418.81 191.72 421.76 192.57 425.43 192.57C428.84 192.57 431.43 191.92 433.17 190.64C433.971 190.095 434.623 189.359 435.066 188.498C435.51 187.637 435.731 186.678 435.71 185.71C435.715 184.665 435.422 183.639 434.866 182.754C434.31 181.869 433.514 181.16 432.57 180.71C430.39 179.45 426.83 178.3 421.99 177.29C405.53 173.84 397.18 166.71 397.18 156.11C397.18 149.92 399.78 144.69 404.91 140.55C410.04 136.41 416.76 134.34 424.98 134.34C433.74 134.34 440.86 136.44 446.13 140.58C448.664 142.463 450.711 144.923 452.103 147.756C453.494 150.589 454.189 153.714 454.13 156.87V157.24H435V156.87C435.036 155.72 434.839 154.574 434.421 153.502C434.004 152.43 433.374 151.453 432.57 150.63C430.95 148.99 428.37 148.17 424.9 148.17C421.9 148.17 419.58 148.84 417.96 150.17C417.2 150.76 416.587 151.519 416.171 152.387C415.754 153.255 415.545 154.208 415.56 155.17C415.56 156.11 415.812 157.033 416.291 157.842C416.769 158.651 417.456 159.317 418.28 159.77C420.15 160.99 423.39 162.06 427.89 162.96C431.831 163.7 435.712 164.733 439.5 166.05C449.31 169.65 454.28 175.98 454.28 184.88C454.28 191.24 451.52 196.45 446.06 200.38C440.6 204.31 433.61 206.33 425.06 206.33ZM395.8 183.23C395.892 187.193 397.197 191.032 399.54 194.23C402.194 197.869 405.766 200.74 409.89 202.55C414.671 204.633 419.846 205.656 425.06 205.55C433.45 205.55 440.38 203.62 445.67 199.81C450.96 196 453.57 191.02 453.57 184.92C453.57 176.37 448.76 170.27 439.28 166.8C435.528 165.492 431.684 164.466 427.78 163.73C423.19 162.82 419.87 161.73 417.91 160.44C416.982 159.918 416.209 159.159 415.671 158.24C415.134 157.321 414.85 156.275 414.85 155.21C414.833 154.13 415.066 153.061 415.531 152.086C415.996 151.111 416.68 150.256 417.53 149.59C419.28 148.14 421.77 147.41 424.94 147.41C428.62 147.41 431.38 148.31 433.14 150.09C434.815 151.797 435.761 154.088 435.78 156.48H453.38C453.379 153.504 452.683 150.57 451.348 147.91C450.013 145.25 448.076 142.939 445.69 141.16C440.55 137.16 433.59 135.08 425 135.08C417 135.08 410.36 137.08 405.4 141.08C400.44 145.08 397.95 150.08 397.95 156.08C397.95 166.28 406.1 173.16 422.16 176.53C427.08 177.53 430.72 178.73 432.97 180.03C434.022 180.548 434.907 181.35 435.528 182.345C436.148 183.339 436.478 184.488 436.48 185.66C436.498 186.744 436.248 187.816 435.753 188.781C435.258 189.746 434.532 190.573 433.64 191.19C431.78 192.57 429.02 193.27 425.45 193.27C421.61 193.27 418.5 192.37 416.2 190.59C415.075 189.701 414.158 188.577 413.512 187.298C412.866 186.018 412.507 184.613 412.46 183.18L395.8 183.23Z" fill="black"/>
<path d="M506.09 197.7C501.557 203.233 495.293 206 487.3 206C479.927 206 474.307 203.883 470.44 199.65C466.573 195.417 464.597 189.2 464.51 181V136H482.85V180.43C482.85 187.59 486.11 191.17 492.63 191.17C498.85 191.17 503.123 189.007 505.45 184.68V136H523.86V204.69H506.59L506.09 197.7Z" fill="black"/>
<path d="M487.3 206.33C479.86 206.33 474.09 204.15 470.17 199.86C466.25 195.57 464.22 189.24 464.17 181.01V135.63H483.27V180.43C483.27 187.43 486.34 190.79 492.67 190.79C498.67 190.79 502.86 188.7 505.12 184.59V135.59H524.27V205.02H506.27L505.81 198.6C501.24 203.74 495 206.33 487.3 206.33ZM464.88 136.38V181C464.97 189 466.88 195.2 470.72 199.35C474.56 203.5 480.08 205.57 487.3 205.57C495.14 205.57 501.36 202.84 505.8 197.46L506.39 196.73L506.94 204.3H523.48V136.38H505.83V184.78L505.78 184.86C503.39 189.29 498.97 191.54 492.63 191.54C485.89 191.54 482.48 187.8 482.48 180.43V136.38H464.88Z" fill="black"/>
<path d="M556.91 205.69H538.5V108.19H556.91V205.69Z" fill="black"/>
<path d="M557.28 206.06H538.12V107.81H557.28V206.06ZM538.87 205.31H556.53V108.56H538.87V205.31Z" fill="black"/>
<path d="M595.63 119.12V136H607.37V149.46H595.63V183.74C595.63 186.28 596.11 188.1 597.09 189.2C598.07 190.3 599.92 190.85 602.67 190.85C604.48 190.869 606.288 190.718 608.07 190.4V204.31C604.484 205.42 600.753 205.99 597 206C584.14 206 577.58 199.503 577.32 186.51V149.51H567.32V136H577.32V119.12H595.63Z" fill="black"/>
<path d="M597 206.33C583.95 206.33 577.21 199.65 576.95 186.48V149.84H566.95V135.63H576.95V118.74H596V135.63H607.75V149.84H596V183.74C596 186.17 596.46 187.93 597.37 188.95C598.28 189.97 600.05 190.47 602.67 190.47C604.457 190.477 606.242 190.32 608 190L608.44 189.91V204.54L608.18 204.62C604.559 205.741 600.791 206.318 597 206.33ZM567.67 149.09H577.67V186.47C577.92 199.33 584.23 205.58 596.97 205.58C600.601 205.574 604.212 205.042 607.69 204V190.85C606.036 191.111 604.364 191.235 602.69 191.22C599.8 191.22 597.88 190.64 596.83 189.45C595.78 188.26 595.27 186.36 595.27 183.74V149.09H607V136.38H595.25V119.49H577.66V136.38H567.66L567.67 149.09Z" fill="black"/>
<path d="M619.81 119.23C619.768 117.968 619.992 116.711 620.467 115.541C620.943 114.371 621.659 113.315 622.57 112.44C624.691 110.719 627.339 109.779 630.07 109.779C632.801 109.779 635.449 110.719 637.57 112.44C639.366 114.258 640.373 116.71 640.373 119.265C640.373 121.82 639.366 124.272 637.57 126.09C635.464 127.81 632.829 128.75 630.11 128.75C627.391 128.75 624.756 127.81 622.65 126.09C621.716 125.214 620.979 124.149 620.49 122.967C620 121.784 619.768 120.51 619.81 119.23V119.23ZM639.3 205.69H620.89V137H639.3V205.69Z" fill="black"/>
<path d="M639.68 206.06H620.52V136.63H639.68V206.06ZM621.27 205.31H638.93V137.38H621.27V205.31ZM630.1 129.13C627.263 129.256 624.49 128.261 622.38 126.36C620.51 124.476 619.454 121.934 619.441 119.279C619.428 116.625 620.458 114.072 622.31 112.17C624.503 110.378 627.248 109.399 630.08 109.399C632.912 109.399 635.657 110.378 637.85 112.17C639.725 114.055 640.778 116.606 640.778 119.265C640.778 121.924 639.725 124.475 637.85 126.36C635.734 128.27 632.948 129.266 630.1 129.13V129.13ZM630.1 110.13C628.781 110.056 627.46 110.244 626.214 110.683C624.968 111.123 623.821 111.805 622.84 112.69C621.129 114.445 620.177 116.802 620.188 119.252C620.2 121.703 621.173 124.051 622.9 125.79C624.931 127.452 627.475 128.36 630.1 128.36C632.725 128.36 635.269 127.452 637.3 125.79C639.026 124.047 639.994 121.693 639.994 119.24C639.994 116.787 639.026 114.433 637.3 112.69C635.325 110.933 632.74 110.021 630.1 110.15V110.13Z" fill="black"/>
<path d="M671.27 137L671.84 144.94C676.747 138.8 683.33 135.733 691.59 135.74C698.857 135.74 704.273 137.877 707.84 142.15C711.407 146.423 713.223 152.813 713.29 161.32V205.69H695V161.76C695 157.87 694.15 155.04 692.46 153.29C690.77 151.54 687.95 150.65 684.02 150.65C681.66 150.553 679.32 151.121 677.266 152.287C675.212 153.454 673.526 155.173 672.4 157.25V205.69H654V137H671.27Z" fill="black"/>
<path d="M713.67 206.06H694.57V161.76C694.57 157.99 693.76 155.22 692.14 153.55C690.52 151.88 687.78 151 684 151C681.724 150.912 679.469 151.457 677.484 152.575C675.5 153.692 673.865 155.338 672.76 157.33V206.03H653.66V136.63H671.66L672.19 143.98C677.09 138.26 683.62 135.36 691.63 135.36C698.99 135.36 704.55 137.56 708.16 141.91C711.77 146.26 713.62 152.76 713.71 161.31L713.67 206.06ZM695.32 205.31H712.92V161.31C712.84 152.93 711.03 146.56 707.55 142.38C704.07 138.2 698.71 136.1 691.55 136.1C683.45 136.1 676.91 139.1 672.1 145.16L671.5 145.91L670.88 137.37H654.38V205.3H672V157.15V157.06C673.164 154.919 674.906 153.148 677.028 151.949C679.149 150.75 681.565 150.172 684 150.28C688 150.28 690.95 151.2 692.71 153.03C694.47 154.86 695.35 157.79 695.35 161.76L695.32 205.31Z" fill="black"/>
<path d="M724.53 169.84C724.53 159.3 727.037 150.813 732.05 144.38C737.063 137.947 743.823 134.733 752.33 134.74C759.87 134.74 765.733 137.32 769.92 142.48L770.68 136H787.31V202.4C787.442 207.908 786.021 213.342 783.21 218.08C780.464 222.536 776.454 226.073 771.69 228.24C766.221 230.67 760.283 231.862 754.3 231.73C749.238 231.729 744.229 230.709 739.57 228.73C735.342 227.123 731.603 224.445 728.72 220.96L736.84 209.78C738.876 212.208 741.423 214.157 744.3 215.486C747.176 216.816 750.311 217.493 753.48 217.47C758.34 217.47 762.127 216.167 764.84 213.56C767.553 210.953 768.907 207.26 768.9 202.48V198.8C764.673 203.6 759.11 206 752.21 206C748.347 206.091 744.518 205.261 741.04 203.578C737.562 201.894 734.535 199.406 732.21 196.32C727.11 189.86 724.56 181.3 724.56 170.64L724.53 169.84ZM742.87 171.2C742.87 177.433 744.12 182.32 746.62 185.86C747.741 187.546 749.273 188.918 751.072 189.847C752.871 190.776 754.876 191.232 756.9 191.17C762.493 191.17 766.493 189.07 768.9 184.87V156C766.453 151.8 762.497 149.7 757.03 149.7C754.982 149.641 752.953 150.107 751.136 151.054C749.319 152.001 747.774 153.397 746.65 155.11C744.13 158.677 742.87 164.04 742.87 171.2V171.2Z" fill="black"/>
<path d="M754.3 232.1C749.193 232.104 744.136 231.084 739.43 229.1C735.147 227.458 731.359 224.741 728.43 221.21L728.26 220.98L736.82 209.21L737.13 209.55C739.135 211.934 741.64 213.847 744.468 215.153C747.295 216.46 750.375 217.128 753.49 217.11C758.23 217.11 761.96 215.83 764.59 213.31C767.22 210.79 768.54 207.16 768.54 202.5V199.78C764.33 204.16 758.84 206.37 752.22 206.37C748.297 206.462 744.408 205.62 740.875 203.912C737.342 202.205 734.265 199.681 731.9 196.55C726.77 190.06 724.17 181.34 724.17 170.64V169.88C724.17 159.3 726.72 150.66 731.77 144.19C736.82 137.72 743.77 134.4 752.34 134.4C759.63 134.4 765.45 136.83 769.65 141.62L770.35 135.62H787.69V202.4C787.818 207.977 786.381 213.479 783.54 218.28C780.753 222.795 776.688 226.38 771.86 228.58C766.337 231.031 760.341 232.233 754.3 232.1V232.1ZM729.19 220.93C732.023 224.251 735.643 226.809 739.72 228.37C744.33 230.335 749.288 231.355 754.3 231.37C760.227 231.501 766.11 230.323 771.53 227.92C776.224 225.782 780.18 222.303 782.9 217.92C785.653 213.235 787.038 207.872 786.9 202.44V136.44H771L770.17 143.44L769.61 142.75C765.52 137.7 759.7 135.14 752.32 135.14C743.98 135.14 737.25 138.34 732.32 144.64C727.39 150.94 724.88 159.47 724.88 169.87V170.63C724.88 181.16 727.42 189.72 732.44 196.07C734.739 199.111 737.728 201.562 741.16 203.22C744.592 204.879 748.369 205.698 752.18 205.61C758.93 205.61 764.45 203.24 768.59 198.61L769.25 197.86V202.53C769.25 207.4 767.84 211.22 765.07 213.88C762.3 216.54 758.39 217.88 753.45 217.88C750.31 217.902 747.201 217.247 744.337 215.96C741.472 214.672 738.919 212.783 736.85 210.42L729.19 220.93ZM756.9 191.54C754.816 191.598 752.752 191.126 750.9 190.17C749.048 189.213 747.469 187.803 746.31 186.07C743.78 182.49 742.5 177.49 742.5 171.2C742.5 164 743.79 158.49 746.34 154.84C747.5 153.085 749.086 151.654 750.951 150.682C752.816 149.709 754.897 149.227 757 149.28C762.58 149.28 766.68 151.46 769.19 155.76L769.25 155.84V185V185.09C766.75 189.36 762.61 191.54 756.9 191.54V191.54ZM757 150C755.023 149.959 753.069 150.422 751.319 151.343C749.57 152.265 748.084 153.616 747 155.27C744.54 158.79 743.29 164.15 743.29 171.2C743.29 177.33 744.53 182.2 746.97 185.64C748.062 187.277 749.554 188.608 751.303 189.509C753.053 190.41 755.003 190.851 756.97 190.79C762.35 190.79 766.26 188.79 768.6 184.79V156.05C766.15 152.05 762.28 150 757 150Z" fill="black"/>
</svg>
